<?xml version="1.0" encoding="UTF-8" standalone="no"?><!DOCTYPE svg PUBLIC "-//W3C//DTD SVG 1.1//EN" "http://www.w3.org/Graphics/SVG/1.1/DTD/svg11.dtd"><svg width="100%" height="100%" viewBox="0 0 100 103" version="1.1" xmlns="http://www.w3.org/2000/svg" xmlns:xlink="http://www.w3.org/1999/xlink" xml:space="preserve" xmlns:serif="http://www.serif.com/" style="fill-rule:evenodd;clip-rule:evenodd;stroke-miterlimit:10;"><g id="Layer-1" serif:id="Layer 1"><path d="M87.347,56.214c0.786,2.372 3.35,3.66 5.722,2.873c2.372,-0.786 3.659,-3.35 2.873,-5.722c-0.786,-2.371 -3.35,-3.659 -5.722,-2.873c-2.372,0.787 -3.659,3.351 -2.873,5.722Z" style="fill:none;stroke:#000;stroke-width:0.98px;"/><path d="M3.93,56.215c0.787,2.372 3.351,3.659 5.723,2.873c2.371,-0.786 3.659,-3.35 2.873,-5.722c-0.787,-2.372 -3.351,-3.66 -5.723,-2.874c-2.371,0.787 -3.659,3.351 -2.873,5.723Z" style="fill:none;stroke:#000;stroke-width:0.98px;"/><path d="M85.797,35.533c0.641,2.042 2.729,3.148 4.663,2.472c1.934,-0.677 2.982,-2.881 2.341,-4.922c-0.641,-2.042 -2.729,-3.149 -4.663,-2.472c-1.934,0.677 -2.982,2.88 -2.341,4.922Z" style="fill:none;stroke:#000;stroke-width:0.82px;"/><path d="M6.903,35.533c0.641,2.042 2.729,3.148 4.663,2.472c1.934,-0.677 2.982,-2.881 2.341,-4.922c-0.641,-2.042 -2.729,-3.149 -4.663,-2.472c-1.934,0.677 -2.982,2.88 -2.341,4.922Z" style="fill:none;stroke:#000;stroke-width:0.82px;"/><path d="M69.101,26.026c0.48,1.529 2.044,2.358 3.493,1.852c1.449,-0.508 2.234,-2.159 1.754,-3.688c-0.48,-1.529 -2.044,-2.358 -3.493,-1.852c-1.449,0.507 -2.234,2.158 -1.754,3.688Z" style="fill:none;stroke:#000;stroke-width:0.61px;"/><path d="M26.535,26.026c0.48,1.529 2.044,2.358 3.493,1.852c1.449,-0.508 2.234,-2.159 1.754,-3.688c-0.48,-1.529 -2.044,-2.358 -3.493,-1.852c-1.449,0.507 -2.234,2.158 -1.754,3.688Z" style="fill:none;stroke:#000;stroke-width:0.61px;"/><path d="M45.999,48.046c0.866,2.613 3.691,4.032 6.304,3.166c2.613,-0.866 4.032,-3.691 3.166,-6.305c-0.866,-2.613 -3.691,-4.031 -6.304,-3.165c-2.614,0.866 -4.032,3.69 -3.166,6.304Z" style="fill:none;stroke:#000;stroke-width:0.98px;"/><path d="M46.957,33.658c0.691,2.085 2.944,3.216 5.029,2.525c2.084,-0.69 3.216,-2.944 2.525,-5.028c-0.691,-2.085 -2.944,-3.217 -5.029,-2.526c-2.084,0.691 -3.216,2.944 -2.525,5.029Z" style="fill:none;stroke:#000;stroke-width:0.78px;"/><path d="M47.687,20.748c0.499,1.505 2.126,2.321 3.631,1.822c1.505,-0.499 2.322,-2.125 1.823,-3.63c-0.499,-1.505 -2.126,-2.322 -3.631,-1.823c-1.505,0.499 -2.322,2.126 -1.823,3.631Z" style="fill:none;stroke:#000;stroke-width:0.56px;"/><path d="M47.67,18.993c-0.172,0.553 -0.179,1.163 0.018,1.754c0.499,1.506 2.125,2.322 3.63,1.823c1.458,-0.483 2.269,-2.021 1.867,-3.486c2.812,0.606 6.45,2.203 6.099,6.412c0,0 12.625,-6.783 29.208,6.219c16.583,13.002 -0.377,32.6 -0.377,32.6c0,0 1.507,3.015 -2.261,4.334c0,0 -2.073,2.638 -1.696,4.523c0.106,0.531 0.288,1.213 0.494,1.918c3.454,1.006 1.262,3.645 1.197,3.722c0.001,0.003 0.005,0.013 0.005,0.013c0,0 -10.065,-0.068 -35.099,-0.068c-25.051,0 -36.207,0.068 -36.207,0.068c0,0 0.057,-0.165 0.149,-0.435l-0.149,0.435c0,0 -2.332,-2.657 1.185,-3.675c0.212,-0.726 0.402,-1.432 0.511,-1.978c0.377,-1.885 -1.696,-4.523 -1.696,-4.523c-3.769,-1.319 -2.262,-4.334 -2.262,-4.334c0,0 -16.959,-19.598 -0.377,-32.6c16.583,-13.002 29.209,-6.219 29.209,-6.219c-0.37,-4.44 3.697,-5.973 6.552,-6.503Zm11.417,50.2c0,0 -1.791,-1.095 -4,-1.095c-0.691,0 -1.341,0.107 -1.909,0.255c0.712,-0.379 1.507,-0.905 2.22,-1.618c1.869,-1.869 2.458,-4.312 2.458,-4.312c0,0 -2.443,0.589 -4.312,2.458c-0.613,0.613 -1.087,1.289 -1.45,1.918c0.246,-0.831 0.44,-1.825 0.44,-2.893c0,-2.921 -1.448,-5.288 -1.448,-5.288c0,0 -1.448,2.367 -1.448,5.288c0,1.069 0.194,2.062 0.44,2.894c-0.362,-0.63 -0.837,-1.305 -1.449,-1.919c-1.87,-1.869 -4.313,-2.458 -4.313,-2.458c0,0 0.589,2.443 2.458,4.312c0.713,0.713 1.508,1.239 2.22,1.618c-0.568,-0.148 -1.218,-0.255 -1.909,-0.255c-2.209,0 -3.999,1.095 -3.999,1.095c0,0 1.79,1.096 4,1.096c1.08,0 2.06,-0.262 2.779,-0.53c-0.129,0.095 -0.258,0.201 -0.381,0.324c-0.694,0.694 -0.913,1.602 -0.913,1.602c0,0 0.907,-0.219 1.602,-0.913c0.29,-0.291 0.496,-0.618 0.639,-0.9l0,3.372l0.548,0l0,-3.372c0.144,0.283 0.35,0.609 0.639,0.9c0.695,0.694 1.602,0.913 1.602,0.913c0,0 -0.219,-0.908 -0.913,-1.602c-0.122,-0.123 -0.251,-0.229 -0.381,-0.324c0.719,0.268 1.699,0.53 2.78,0.53c2.209,0 4,-1.096 4,-1.096Zm12.718,1.093c-0.447,-0.077 -0.88,-0.08 -1.264,-0.047c0.503,-0.166 1.076,-0.419 1.617,-0.801c1.418,-1.003 2.069,-2.519 2.069,-2.519c0,0 -1.646,0.11 -3.064,1.113c-0.465,0.329 -0.847,0.713 -1.151,1.082c0.251,-0.512 0.487,-1.134 0.606,-1.826c0.324,-1.89 -0.351,-3.584 -0.351,-3.584c0,0 -1.2,1.372 -1.525,3.263c-0.118,0.692 -0.103,1.357 -0.036,1.922c-0.164,-0.448 -0.397,-0.938 -0.726,-1.403c-1.002,-1.417 -2.518,-2.07 -2.518,-2.07c0,0 0.11,1.647 1.113,3.065c0.382,0.54 0.838,0.969 1.257,1.293c-0.351,-0.158 -0.76,-0.3 -1.207,-0.376c-1.43,-0.245 -2.712,0.265 -2.712,0.265c0,0 1.038,0.908 2.469,1.153c0.699,0.12 1.362,0.059 1.858,-0.034c-0.095,0.046 -0.19,0.101 -0.283,0.167c-0.527,0.373 -0.769,0.936 -0.769,0.936c0,0 0.612,-0.041 1.139,-0.413c0.22,-0.156 0.389,-0.345 0.513,-0.512l-0.374,2.183l0.355,0.061l0.375,-2.184c0.061,0.2 0.158,0.434 0.314,0.654c0.372,0.527 0.935,0.769 0.935,0.769c0,0 -0.041,-0.612 -0.413,-1.138c-0.066,-0.093 -0.138,-0.177 -0.211,-0.252c0.436,0.253 1.041,0.531 1.741,0.651c1.43,0.245 2.711,-0.265 2.711,-0.265c0,0 -1.038,-0.908 -2.468,-1.153Zm-37.392,0.529c1.43,-0.245 2.468,-1.153 2.468,-1.153c0,0 -1.281,-0.51 -2.711,-0.265c-0.447,0.077 -0.857,0.218 -1.207,0.376c0.418,-0.324 0.875,-0.752 1.257,-1.293c1.003,-1.417 1.113,-3.064 1.113,-3.064c0,0 -1.516,0.652 -2.519,2.069c-0.329,0.465 -0.561,0.955 -0.726,1.403c0.067,-0.565 0.083,-1.23 -0.036,-1.922c-0.324,-1.891 -1.524,-3.262 -1.524,-3.262c0,0 -0.675,1.693 -0.351,3.584c0.119,0.692 0.355,1.313 0.606,1.825c-0.304,-0.369 -0.686,-0.753 -1.151,-1.082c-1.418,-1.003 -3.065,-1.112 -3.065,-1.112c0,0 0.652,1.516 2.07,2.518c0.541,0.382 1.114,0.635 1.617,0.801c-0.384,-0.032 -0.817,-0.03 -1.264,0.047c-1.431,0.245 -2.468,1.153 -2.468,1.153c0,0 1.281,0.51 2.711,0.265c0.7,-0.12 1.305,-0.398 1.741,-0.651c-0.073,0.075 -0.145,0.159 -0.211,0.252c-0.372,0.527 -0.413,1.138 -0.413,1.138c0,0 0.563,-0.242 0.936,-0.769c0.155,-0.22 0.252,-0.454 0.314,-0.653l0.374,2.183l0.355,-0.06l-0.374,-2.184c0.124,0.167 0.293,0.356 0.513,0.512c0.527,0.372 1.138,0.413 1.138,0.413c0,0 -0.242,-0.563 -0.769,-0.936c-0.092,-0.066 -0.188,-0.12 -0.282,-0.167c0.495,0.093 1.159,0.154 1.858,0.034Zm31.647,-34.585c-2.7,-0.051 -5.009,1.138 -5.009,1.138c0.754,6.407 1.508,20.728 1.508,20.728c1.204,0.17 2.524,0.381 3.888,0.613c0.58,0.099 1.168,0.202 1.759,0.308l0.035,0.006l0.1,0.018c0.394,0.071 0.79,0.142 1.185,0.215c0.639,0.118 1.276,0.237 1.905,0.357c0.362,0.069 0.72,0.137 1.075,0.206c0.606,0.117 1.199,0.233 1.776,0.348c0.432,0.085 0.854,0.169 1.263,0.252l0.684,0.138c0.312,0.063 0.615,0.125 0.908,0.185c2.644,0.541 4.454,0.935 4.454,0.935c2.073,-4.146 5.842,-10.93 2.45,-17.902c-0.089,-0.182 -0.182,-0.359 -0.278,-0.529c-0.289,-0.509 -0.611,-0.967 -0.961,-1.379c-0.059,-0.07 -0.12,-0.139 -0.181,-0.207c-0.042,-0.047 -0.085,-0.093 -0.128,-0.138c-0.43,-0.455 -0.895,-0.848 -1.382,-1.186c-0.444,-0.309 -0.906,-0.572 -1.378,-0.796c-0.152,-0.072 -0.304,-0.14 -0.457,-0.204c-0.094,-0.04 -0.188,-0.078 -0.283,-0.114c-0.165,-0.064 -0.331,-0.124 -0.497,-0.18c-0.473,-0.159 -0.948,-0.285 -1.416,-0.385l-0.06,-0.013l-0.036,-0.007c-3.033,-0.625 -5.743,-0.14 -5.757,-0.138c-0.036,-0.039 -0.073,-0.078 -0.109,-0.117c-0.034,-0.035 -0.068,-0.07 -0.102,-0.104c-0.116,-0.118 -0.234,-0.229 -0.353,-0.334c-0.034,-0.03 -0.068,-0.059 -0.102,-0.088l-0.002,-0.002l-0.012,-0.01c-0.029,-0.024 -0.058,-0.049 -0.087,-0.073l-0.049,-0.039l-0.024,-0.019c-0.028,-0.022 -0.056,-0.044 -0.083,-0.065c-0.058,-0.044 -0.116,-0.087 -0.174,-0.129c-0.09,-0.065 -0.181,-0.127 -0.273,-0.186c-0.204,-0.132 -0.411,-0.25 -0.62,-0.355c-0.319,-0.16 -0.642,-0.291 -0.968,-0.395l-0.034,-0.011l-0.038,-0.011c-0.03,-0.01 -0.061,-0.019 -0.091,-0.028l-0.031,-0.009l-0.029,-0.008c-0.077,-0.022 -0.154,-0.042 -0.232,-0.062c-0.14,-0.034 -0.281,-0.065 -0.421,-0.091l-0.013,-0.002l-0.012,-0.002c-0.039,-0.008 -0.078,-0.014 -0.117,-0.021c-0.056,-0.009 -0.113,-0.018 -0.169,-0.026c-0.042,-0.006 -0.085,-0.012 -0.128,-0.017l-0.053,-0.007l-0.07,-0.008l-0.036,-0.004l-0.016,-0.002l-0.09,-0.009l-0.106,-0.009l-0.024,-0.002c-0.167,-0.013 -0.334,-0.02 -0.499,-0.024Zm-46.989,25.447c0,0 10.282,-2.319 19.032,-3.581c0,0 0.754,-14.321 1.508,-20.728c0,0 -6.219,-3.203 -10.176,1.131c0,0 -9.422,-1.696 -12.814,5.276c-3.392,6.972 0.377,13.756 2.45,17.902Zm26.928,-13.632c0.867,2.615 3.689,4.032 6.304,3.166c2.614,-0.867 4.032,-3.689 3.165,-6.304c-0.866,-2.615 -3.689,-4.032 -6.303,-3.166c-2.615,0.867 -4.033,3.689 -3.166,6.304Zm0.958,-14.387c0.691,2.086 2.942,3.217 5.028,2.525c2.086,-0.691 3.217,-2.942 2.525,-5.028c-0.691,-2.086 -2.942,-3.217 -5.028,-2.525c-2.086,0.691 -3.216,2.943 -2.525,5.028Z" style="fill-rule:nonzero;"/></g></svg>